<?xml version="1.0" standalone="no"?>
<!DOCTYPE svg PUBLIC "-//W3C//DTD SVG 20010904//EN"
 "http://www.w3.org/TR/2001/REC-SVG-20010904/DTD/svg10.dtd">
<svg version="1.0" xmlns="http://www.w3.org/2000/svg"
 width="200.000000pt" height="200.000000pt" viewBox="0 0 200.000000 200.000000"
 preserveAspectRatio="xMidYMid meet">
<metadata>
Created by potrace 1.15, written by Peter Selinger 2001-2017
</metadata>
<g transform="translate(0.000000,200.000000) scale(0.100000,-0.100000)"
fill="#000000" stroke="none">
<path d="M478 1412 c-10 -2 -18 -8 -18 -13 0 -5 -7 -9 -15 -9 -30 0 -58 -79
-62 -180 -3 -52 -7 -102 -10 -110 -4 -8 -6 -18 -5 -21 1 -4 -12 -17 -28 -29
-40 -30 -39 -66 1 -99 27 -23 31 -33 35 -91 13 -185 24 -224 76 -255 29 -17
170 -35 156 -20 -3 3 -2 20 4 36 7 20 6 39 -2 64 -10 29 -16 35 -40 35 -39 0
-45 13 -46 95 -2 93 -12 139 -36 165 -20 21 -20 21 0 43 24 27 36 77 33 139
-2 54 16 131 29 123 4 -3 19 -1 33 4 29 11 40 48 31 97 l-6 35 -57 -2 c-31 -2
-64 -5 -73 -7z"/>
<path d="M1403 1404 c-13 -24 -10 -91 4 -105 6 -6 23 -12 37 -12 33 -2 37 -13
42 -117 5 -99 10 -118 35 -146 17 -18 18 -23 5 -33 -23 -19 -35 -68 -40 -161
-5 -108 -9 -118 -45 -112 -34 5 -42 -6 -46 -61 -4 -69 7 -80 74 -74 121 11
157 65 162 247 2 86 11 113 45 131 34 18 31 56 -7 90 -24 21 -31 37 -34 75 -2
27 -7 77 -9 111 -6 62 -31 143 -46 143 -5 0 -16 7 -25 16 -10 11 -40 18 -80
22 -54 4 -64 2 -72 -14z"/>
<path d="M815 1323 l-30 -4 3 -319 3 -319 42 -6 c24 -4 58 -3 77 2 l35 9 0
100 0 99 71 2 c87 2 127 22 170 85 28 41 31 55 33 127 2 85 -5 105 -58 165
-25 26 -50 41 -96 53 -25 7 -209 11 -250 6z m222 -155 c17 -16 23 -33 23 -64
0 -57 -25 -86 -76 -88 l-39 -1 -3 88 -3 87 37 0 c25 0 46 -7 61 -22z"/>
<path d="M1134 829 c-8 -13 -12 -139 -4 -140 3 0 14 -3 25 -6 39 -11 96 -6
121 9 9 6 12 101 5 141 -2 11 -139 8 -147 -4z"/>
</g>
</svg>
